


<!DOCTYPE html>
<html lang="ru">

<!-- Mirrored from archlinux.org.ru/forum/topic/12755/ by HTTrack Website Copier/3.x [XR&CO'2014], Thu, 08 Sep 2022 09:53:53 GMT -->
<!-- Added by HTTrack --><meta http-equiv="content-type" content="text/html;charset=utf-8" /><!-- /Added by HTTrack -->
<head>
    <meta charset="utf-8" />
    <meta name="viewport" content="width=device-width, initial-scale=1.0">
    <title>
        [Решено] Запись   видео с рабочего стола со звуком
    </title>
    <link rel="shortcut icon" href="https://archlinuxcomru.github.io/backup/src/favicon.ico" type="image/x-icon" />
    <link rel="stylesheet" type="text/css" href="https://archlinuxcomru.github.io/backup/src/css/bootstrap.css">
    
    
    

    <script type="text/javascript" src="https://archlinuxcomru.github.io/backup/src/js/jquery-1.8.3.min.js"></script>
    <script type="text/javascript" src="https://archlinuxcomru.github.io/backup/src/js/bootstrap.js"></script>
    <script type="text/javascript" src="https://archlinuxcomru.github.io/backup/src/js/pybbjs.js"></script>
    
    
    
    <!-- Feeds -->
    <link rel="alternate" type="application/atom+xml" href="../../feeds/posts/index.html" title="Последние сообщения на форуме" >
    <link rel="alternate" type="application/atom+xml" href="../../feeds/topics/index.html" title="Последние темы на форуме" >

    
    
    
    <script type="text/javascript" src="https://storage.yandexcloud.net/aor-static/static/pybb/js/jquery.formset.min.js"></script>

</head>
<body>

<nav class="navbar navbar-default" role="navigation">
    <div class="container-fluid wrapper">
        
    
<ul class="nav navbar-nav">
    <li>
      <a class="navbar-brand" href="../../../index.html">
        <img src="https://archlinuxcomru.github.io/backup/src/logo.png" alt="" style="opacity: .7; vertical-align: top">
      </a>
    </li>
    <li class=""><a href="../../../news/index.html">Новости</a></li>
    <li class="active"><a href="../../index.html">Форум</a></li>
    <li class=""><a href="../../../blogs/index.html">Блоги</a></li>
    <li><a href="https://archlinux.org/">Eng</a></li>
    <li><a href="https://wiki.archlinux.org/index.php/Main_page_(Русский)">Wiki</a></li>
    <li class="dropdown">
      <a href="https://www.archlinux.org/packages/" class="dropdown-toggle" data-toggle="dropdown">
        Пакеты
        <b class="caret"></b>
      </a>
      <ul class="dropdown-menu">
        <li><a href="https://www.archlinux.org/packages/">Официальные репозитории</a></li></li>
        <li><a href="https://aur.archlinux.org/?setlang=ru">AUR</a></li>
      </ul>
    <li><a href="https://archlinux.org/download/">Скачать</a></li>
</ul>

<form class="navbar-form navbar-left" role="search" action="https://www.google.ru/cse">
    <input type="hidden" name="cx" value="018428664132160064944:ntsma9ch2ug"/>
    <input type="hidden" name="ie" value="UTF-8"/>
    <div class="input-group">
      <input type="text" name="q" class="form-control" placeholder="Что ищем?">
      <span class="input-group-btn">
        <button type="submit" name="sa" class="btn btn-default">Найти</button>
      </span>
    </div>
</form>

<ul class="nav navbar-nav navbar-right">


    
      <li><a href="../../../irc/index.html#chat">IRC</a></li>
      <li class="dropdown">
        <a href="../../../accounts/login/index.html" class="dropdown-toggle" data-toggle="dropdown">
          Профиль
          <b class="caret"></b>
        </a>
        <ul class="dropdown-menu">
          <li><a href="../../../accounts/login/index.html">Вход</a></li>
          <li><a href="../../../accounts/register/index.html">Регистрация</a></li>
        </ul>
      </li>
    
</ul>


    </div>
</nav>



<div class="modal fade" id='new_pm_notify' role="dialog" aria-labelledby="gridSystemModalLabel">
  <div class="modal-dialog modal-sm" role="document">
    <div class="modal-content navbar-default">
      <div class="modal-header">
        <button type="button" class="close" data-dismiss="modal" aria-label="Close"><span aria-hidden="true">&times;</span></button>
        <h4 class="modal-title" id="gridSystemModalLabel">Новые личные сообщения</h4>
      </div>
      <div class="modal-body">
        <a href="../../../messages/inbox/index.html" class="center-block btn btn-primary">Перейти в папку Входящие <span class="badge"></span></a>
      </div>
    </div>
  </div>
</div>

<div class="container-fluid wrapper">
    <div class="row">
        <div class="col-md-12">
            
    
        
<ul class="breadcrumb">
    

    <li><a href="../../../index.html">ArchLinux.org.ru</a></li>


    <li><a href="../../index.html">Начало</a> <span class="divider">/</span></li>
    
        
            
                <li><a href="../../category/2/index.html">Поддержка пользователей</a> <span class="divider">/</span></li>
            
                <li><a href="../../forum/10/index.html">Мультимедиа</a> <span class="divider">/</span></li>
            
        
        
            <li>[Решено] Запись   видео с рабочего стола со звуком</li>
        
    
    
</ul>

    

        </div>
    </div>
    <div class="row">
        <div class="col-md-12">
            
    <div class="row">
        <div class="col-md-12 forum">
            
    
    <div class="topic">
        <h1>[Решено] Запись   видео с рабочего стола со звуком</h1>
        
            <div class="text-center">
    



</div>

        

        

        <div class="posts">
            
            
                
                




<table class="table table-bordered post post-row
       "
       id="post-125087"
       >
    <thead>
    <tr>
        <td class="post-author">
            <a href="../../users/teplovoz/index.html">
                <span class="post-username">teplovoz</span>
            </a>
        </td>
        <td class="post-date">
            <div class="post-control">
                
                    
                
            </div>
            <a class="permalink" href="../../post/125087/index.html">#</a>
            8 лет, 9 месяцев назад
            
            
        </td>
    </tr>
    </thead>
    <tbody>
    <tr>
        <td class="post-info">
            

<div class="avatar">
    
        <img src="https://storage.yandexcloud.net/aor-static/media/cache/a3/d5/a3d5377868dad212636a6c6b23eaf059.png" alt="teplovoz avatar" />
    
</div>

            <div>
                Темы:
                <a href="../../users/teplovoz/topics/index.html">
                    7
                </a>
            </div>
            <div>
                Сообщения:
                <a href="../../users/teplovoz/posts/index.html">
                    1045
                </a>
            </div>
            <div>
                Участник с: 28 мая 2012
            </div>
            
        </td>
        <td class="post-content">
            Понадобилось сделать запись с экрана со звуком ,   <a href="../3741/index.html"> так</a>  -  <blockquote>[<a href="../../../cdn-cgi/l/email-protection.html" class="__cf_email__" data-cfemail="b1c7f1d0c3d2d9">[email&#160;protected]</a> ~]$ ffmpeg -f alsa -ac 2 -i hw:0,0 -acodec pcm_s16le -f x11grab -s 1280x1024 -r 25 -i :0.0 -vcodec qtrle screencast.mov<br/></blockquote>,  получаю -  <div class="code"><pre>[<a href="../../../cdn-cgi/l/email-protection.html" class="__cf_email__" data-cfemail="30467051425358">[email&#160;protected]</a> ~]$ ffmpeg -f alsa -ac 2 -i hw:0,0 -acodec pcm_s16le -f x11grab -s 1280x1024 -r 25 -i :0.0 -vcodec qtrle screencast.mov
ffmpeg version 2.1.1 Copyright (c) 2000-2013 the FFmpeg developers
  built on Nov 20 2013 15:44:27 with gcc 4.8.2 (GCC)
  configuration: --prefix=/usr --disable-debug --disable-static --enable-avresample --enable-dxva2 --enable-fontconfig --enable-gnutls --enable-gpl --enable-libass --enable-libbluray --enable-libfreetype --enable-libgsm --enable-libmodplug --enable-libmp3lame --enable-libopencore_amrnb --enable-libopencore_amrwb --enable-libopenjpeg --enable-libopus --enable-libpulse --enable-librtmp --enable-libschroedinger --enable-libspeex --enable-libtheora --enable-libv4l2 --enable-libvorbis --enable-libvpx --enable-libx264 --enable-libxvid --enable-pic --enable-postproc --enable-runtime-cpudetect --enable-shared --enable-swresample --enable-vdpau --enable-version3 --enable-x11grab
  libavutil      52. 48.101 / 52. 48.101
  libavcodec     55. 39.101 / 55. 39.101
  libavformat    55. 19.104 / 55. 19.104
  libavdevice    55.  5.100 / 55.  5.100
  libavfilter     3. 90.100 /  3. 90.100
  libavresample   1.  1.  0 /  1.  1.  0
  libswscale      2.  5.101 /  2.  5.101
  libswresample   0. 17.104 /  0. 17.104
  libpostproc    52.  3.100 / 52.  3.100
Guessed Channel Layout for  Input Stream #0.0 : stereo
Input #0, alsa, from 'hw:0,0':
  Duration: N/A, start: 1386493461.478056, bitrate: 1536 kb/s
    Stream #0:0: Audio: pcm_s16le, 48000 Hz, stereo, s16, 1536 kb/s
[x11grab @ 0x8215320] device: :0.0 -&gt; display: :0.0 x: 0 y: 0 width: 1280 height: 1024
[x11grab @ 0x8215320] shared memory extension found
Input #1, x11grab, from ':0.0':
  Duration: N/A, start: 1386493461.520819, bitrate: 1048575 kb/s
    Stream #1:0: Video: rawvideo (BGR[0] / 0x524742), bgr0, 1280x1024, 1048575 kb/s, 25 tbr, 1000k tbn, 25 tbc
[swscaler @ 0x81f2280] deprecated pixel format used, make sure you did set range correctly
[aac @ 0x822ac00] The encoder 'aac' is experimental but experimental codecs are not enabled, add '-strict -2' if you want to use it.
[<a href="../../../cdn-cgi/l/email-protection.html" class="__cf_email__" data-cfemail="b2c4f2d3c0d1da">[email&#160;protected]</a> ~]$</pre></div>Имею ядро  - <div class="code"><pre>[<a href="../../../cdn-cgi/l/email-protection.html" class="__cf_email__" data-cfemail="c0b680a1b2a3a8">[email&#160;protected]</a> ~]$ uname -a
Linux arch 3.12.3-1-pae #1 SMP PREEMPT Sat Dec 7 16:22:50 EST 2013 i686 GNU/Linux</pre></div>Как я понял ругается на устаревшие данные  и кодек вроде нужен , подскажите что можно сделать ?
            
                
            

            <div class="post-related">
                <div class='attachments'>
                    
                </div>
            </div>
        </td>
    </tr>
    </tbody>
</table>

            
                
                




<table class="table table-bordered post post-row
       "
       id="post-125112"
       >
    <thead>
    <tr>
        <td class="post-author">
            <a href="../../users/Aivar/index.html">
                <span class="post-username">Aivar</span>
            </a>
        </td>
        <td class="post-date">
            <div class="post-control">
                
                    
                
            </div>
            <a class="permalink" href="../../post/125112/index.html">#</a>
            8 лет, 9 месяцев назад
            
            
        </td>
    </tr>
    </thead>
    <tbody>
    <tr>
        <td class="post-info">
            

<div class="avatar">
    
</div>

            <div>
                Темы:
                <a href="../../users/Aivar/topics/index.html">
                    4
                </a>
            </div>
            <div>
                Сообщения:
                <a href="../../users/Aivar/posts/index.html">
                    6897
                </a>
            </div>
            <div>
                Участник с: 17 февраля 2011
            </div>
            
        </td>
        <td class="post-content">
            <blockquote>deprecated pixel format used, make sure you did set range correctly</blockquote>Это может быть всего лишь предупреждением.<br/><blockquote>The encoder 'aac' is experimental but experimental codecs are not enabled, add '-strict -2' if you want to use it.</blockquote>А тут доступно расписано, что  'aac' - экспериментальный кодек и дабы им воспользоваться надо эту самую "экспериментальность" включить, добавив параметр -strict -2
            
                
            

            <div class="post-related">
                <div class='attachments'>
                    
                </div>
            </div>
        </td>
    </tr>
    </tbody>
</table>

            
                
                




<table class="table table-bordered post post-row
       "
       id="post-125115"
       >
    <thead>
    <tr>
        <td class="post-author">
            <a href="../../users/teplovoz/index.html">
                <span class="post-username">teplovoz</span>
            </a>
        </td>
        <td class="post-date">
            <div class="post-control">
                
                    
                
            </div>
            <a class="permalink" href="../../post/125115/index.html">#</a>
            8 лет, 9 месяцев назад
            
            
        </td>
    </tr>
    </thead>
    <tbody>
    <tr>
        <td class="post-info">
            

<div class="avatar">
    
        <img src="https://storage.yandexcloud.net/aor-static/media/cache/a3/d5/a3d5377868dad212636a6c6b23eaf059.png" alt="teplovoz avatar" />
    
</div>

            <div>
                Темы:
                <a href="../../users/teplovoz/topics/index.html">
                    7
                </a>
            </div>
            <div>
                Сообщения:
                <a href="../../users/teplovoz/posts/index.html">
                    1045
                </a>
            </div>
            <div>
                Участник с: 28 мая 2012
            </div>
            
        </td>
        <td class="post-content">
            Да уж - <blockquote>...Семен Семеныч...</blockquote>...<br/><br/>Спасибо - <strong>Aivar </strong> , этот буржуйский ... , а делов то , ввел -  <blockquote>[<a href="../../../cdn-cgi/l/email-protection.html" class="__cf_email__" data-cfemail="24564b4b50644556474c">[email&#160;protected]</a> v]# ffmpeg -f alsa -ac 2 -i hw:0,0 -acodec pcm_s16le -f x11grab -s 1280x800 -r 25 -i :0.0 -vcodec qtrle -strict -2 screencast1.mov<br/></blockquote>и  пошла запись со звуком - <div class="code"><pre>...Stream mapping:
  Stream #1:0 -&gt; #0:0 (rawvideo -&gt; qtrle)
  Stream #0:0 -&gt; #0:1 (pcm_s16le -&gt; aac)
Press [q] to stop, [?] for help
frame=   14 fps=0.0 q=0.0 size=    3571kB time=00:00:00.56 bitrate=52236.7kbits/frame=   26 fps= 26 q=0.0 size=    5359kB time=00:00:01.04 bitrate=42214.3kbits/frame=   39 fps= 26 q=0.0 size=    7146kB time=00:00:01.56 bitrate=37525.2kbits/frame=   52 fps= 26 q=0.0 size=    8923kB time=00:00:02.08 bitrate=35141.7kbits/frame=   64 fps= 25 q=0.0 size=   10694kB time=00:00:02.56 bitrate=34221.3kbits/frame=   77 fps= 25 q=0.0 size=   12462kB time=00:00:03.08 bitrate=33145.4kbits/frame=   89 fps= 25 q=0.0 size=   14228kB time=00:00:03.56 bitrate=32740.8kbits/frame=  102 fps= 25 q=0.0 size=   15992kB time=00:00:04.08 bitrate=32110.3kbits</pre></div>
            
                
            

            <div class="post-related">
                <div class='attachments'>
                    
                </div>
            </div>
        </td>
    </tr>
    </tbody>
</table>

            
        </div>
        <div>&nbsp;</div>
        
            <div class="text-center">
    



</div>

        

        

        
            
<a href="../../../accounts/register/index.html">Зарегистрироваться</a> или <a href="../../../accounts/login/indexeebd.html?next=/forum/topic/12755/">войдите</a> чтобы оставить сообщение.

        

        
    </div>

        </div>
    </div>

        </div>
    </div>
    <div class="row">
        <div class="col-md-6 footer">
            
                <p class="copyright">&copy; 2006-2022, Русскоязычное сообщество
                    Arch Linux.<br>Название и логотип Arch Linux &trade;
                    являются признанными торговыми
                    марками.<br>Linux &reg; &mdash; зарегистрированная торговая
                    марка Linus Torvalds и LMI.</p>
            
        </div>
    </div>
</div>

<script data-cfasync="false" src="../../../cdn-cgi/scripts/5c5dd728/cloudflare-static/email-decode.min.js"></script><script>(function(){var js = "window['__CF$cv$params']={r:'74605b45997375af',m:'Jp6vr6Vpl9V6kfmi_HDTrcMCDVmP6oKrXltnNYNdtgw-1662395501-0-AWBKRPMxYliMq7lMsOwQBBWwuudmFUzhqJ4Ox+XkORZpYGhw6W/Y6U9suwmBSQylwp2P2KsArscTG7Rhvv7CSu8t67VVrBvnJeUg4HeXljn5SmAbSfP9W1QE3ZpronU+/5Oa/IJlJC/zUIV2mbZ4GYA=',s:[0xfeb4d99f16,0x0ddd3ee11c],u:'/cdn-cgi/challenge-platform/h/g'};var now=Date.now()/1000,offset=14400,ts=''+(Math.floor(now)-Math.floor(now%offset)),_cpo=document.createElement('script');_cpo.nonce='',_cpo.src='../../../cdn-cgi/challenge-platform/h/g/scripts/alpha/invisible5615.js?ts='+ts,document.getElementsByTagName('head')[0].appendChild(_cpo);";var _0xh = document.createElement('iframe');_0xh.height = 1;_0xh.width = 1;_0xh.style.position = 'absolute';_0xh.style.top = 0;_0xh.style.left = 0;_0xh.style.border = 'none';_0xh.style.visibility = 'hidden';document.body.appendChild(_0xh);function handler() {var _0xi = _0xh.contentDocument || _0xh.contentWindow.document;if (_0xi) {var _0xj = _0xi.createElement('script');_0xj.nonce = '';_0xj.innerHTML = js;_0xi.getElementsByTagName('head')[0].appendChild(_0xj);}}if (document.readyState !== 'loading') {handler();} else if (window.addEventListener) {document.addEventListener('DOMContentLoaded', handler);} else {var prev = document.onreadystatechange || function () {};document.onreadystatechange = function (e) {prev(e);if (document.readyState !== 'loading') {document.onreadystatechange = prev;handler();}};}})();</script></body>

<!-- Mirrored from archlinux.org.ru/forum/topic/12755/ by HTTrack Website Copier/3.x [XR&CO'2014], Thu, 08 Sep 2022 09:53:53 GMT -->
</html>
